<svg width="514" height="74" viewBox="0 0 514 74" fill="none" xmlns="http://www.w3.org/2000/svg">
<g filter="url(#filter0_diiii_64_16462)">
<g clip-path="url(#clip0_64_16462)">
<rect x="1.16272" y="0.873047" width="71.5099" height="71.5099" rx="13.9531" fill="#EA5200"/>
<rect x="1.16272" y="0.873047" width="71.5099" height="71.5099" rx="13.9531" fill="url(#paint0_linear_64_16462)"/>
<g opacity="0.5" filter="url(#filter1_f_64_16462)">
<ellipse cx="36.9177" cy="15.5536" rx="30.5225" ry="10.6102" fill="#FFD190"/>
</g>
<g filter="url(#filter2_f_64_16462)">
<ellipse cx="38.371" cy="21.9487" rx="13.9531" ry="4.79639" fill="#FFDBA8"/>
</g>
<g opacity="0.5" filter="url(#filter3_f_64_16462)">
<path d="M23.1212 55.0575L36.5779 49.1289L38.9526 67.1517H21.8019L23.1212 55.0575Z" fill="#AF2708"/>
</g>
<g filter="url(#filter4_dddi_64_16462)">
<path d="M45.5708 15.6708L25.0456 20.5149C22.8133 21.0412 21.0024 23.1778 21.0024 25.2857V43.315C21.0024 43.315 21.008 43.2207 21.0621 43.0793C21.1758 42.7821 21.5099 42.2728 22.475 41.9769C22.4944 41.9717 22.5138 41.9665 22.5332 41.9612L23.5856 41.7112L26.8509 40.9335L47.2208 36.126C51.8006 35.0459 55.0132 34.2691 55.0132 29.8112L55.0132 18.6727L55.0132 18.661V18.4866C55.0132 13.8179 50.3683 14.5383 45.5708 15.6708Z" fill="white"/>
<path d="M45.5708 15.6708L25.0456 20.5149C22.8133 21.0412 21.0024 23.1778 21.0024 25.2857V43.315C21.0024 43.315 21.008 43.2207 21.0621 43.0793C21.1758 42.7821 21.5099 42.2728 22.475 41.9769C22.4944 41.9717 22.5138 41.9665 22.5332 41.9612L23.5856 41.7112L26.8509 40.9335L47.2208 36.126C51.8006 35.0459 55.0132 34.2691 55.0132 29.8112L55.0132 18.6727L55.0132 18.661V18.4866C55.0132 13.8179 50.3683 14.5383 45.5708 15.6708Z" fill="url(#paint1_radial_64_16462)"/>
</g>
<path d="M21.0024 44.7632V43.314C21.0027 43.3101 21.0091 43.2169 21.0621 43.0785C21.1758 42.7813 21.5099 42.272 22.475 41.9761L22.5332 41.9604L23.5856 41.7103L26.8509 40.9327L47.2208 36.1252C51.8006 35.0451 55.0132 34.2683 55.0132 29.8104V18.6602L55.0132 18.6719V30.5726C55.0132 35.2572 51.8006 36.0736 47.2208 37.2086L26.8509 42.2606L23.5856 43.0779L22.5332 43.3406L22.475 43.3572C21.5099 43.6681 21.1758 44.2033 21.0621 44.5156C21.008 44.6642 21.0024 44.7632 21.0024 44.7632Z" fill="#FFECDC" fill-opacity="0.52"/>
<path d="M21.0024 44.7632V43.314C21.0027 43.3101 21.0091 43.2169 21.0621 43.0785C21.1758 42.7813 21.5099 42.272 22.475 41.9761L22.5332 41.9604L23.5856 41.7103L26.8509 40.9327L47.2208 36.1252C51.8006 35.0451 55.0132 34.2683 55.0132 29.8104V18.6602L55.0132 18.6719V30.5726C55.0132 35.2572 51.8006 36.0736 47.2208 37.2086L26.8509 42.2606L23.5856 43.0779L22.5332 43.3406L22.475 43.3572C21.5099 43.6681 21.1758 44.2033 21.0621 44.5156C21.008 44.6642 21.0024 44.7632 21.0024 44.7632Z" fill="url(#paint2_linear_64_16462)"/>
<path d="M23.5181 41.4287L22.4663 41.6787L22.4575 41.6816L22.3989 41.6973L22.3901 41.7002C21.8941 41.8523 21.5421 42.0605 21.2935 42.2783V25.2861C21.2937 23.3294 22.9954 21.298 25.1128 20.7988L45.6372 15.9541L45.8979 15.8926C48.2113 15.3539 50.4121 14.9479 52.0474 15.1914C52.8869 15.3164 53.5452 15.6082 53.9956 16.1123C54.4446 16.6149 54.7221 17.3678 54.7222 18.4873V29.8125C54.7221 30.8918 54.5284 31.7278 54.1821 32.3936C53.8366 33.0578 53.3303 33.5714 52.6772 33.9922C51.3529 34.8456 49.4609 35.2996 47.1538 35.8438L26.7837 40.6514L23.5181 41.4287Z" stroke="white" stroke-opacity="0.2" stroke-width="0.581381"/>
<path d="M23.5181 41.4287L22.4663 41.6787L22.4575 41.6816L22.3989 41.6973L22.3901 41.7002C21.8941 41.8523 21.5421 42.0605 21.2935 42.2783V25.2861C21.2937 23.3294 22.9954 21.298 25.1128 20.7988L45.6372 15.9541L45.8979 15.8926C48.2113 15.3539 50.4121 14.9479 52.0474 15.1914C52.8869 15.3164 53.5452 15.6082 53.9956 16.1123C54.4446 16.6149 54.7221 17.3678 54.7222 18.4873V29.8125C54.7221 30.8918 54.5284 31.7278 54.1821 32.3936C53.8366 33.0578 53.3303 33.5714 52.6772 33.9922C51.3529 34.8456 49.4609 35.2996 47.1538 35.8438L26.7837 40.6514L23.5181 41.4287Z" stroke="url(#paint3_linear_64_16462)" stroke-opacity="0.6" stroke-width="0.581381"/>
<g opacity="0.4" filter="url(#filter5_f_64_16462)" style="mix-blend-mode:screen">
<path d="M23.5181 41.4287L22.4663 41.6787L22.4575 41.6816L22.3989 41.6973L22.3901 41.7002C21.8941 41.8523 21.5421 42.0605 21.2935 42.2783V25.2861C21.2937 23.3294 22.9954 21.298 25.1128 20.7988L45.6372 15.9541L45.8979 15.8926C48.2113 15.3539 50.4121 14.9479 52.0474 15.1914C52.8869 15.3164 53.5452 15.6082 53.9956 16.1123C54.4446 16.6149 54.7221 17.3678 54.7222 18.4873V29.8125C54.7221 30.8918 54.5284 31.7278 54.1821 32.3936C53.8366 33.0578 53.3303 33.5714 52.6772 33.9922C51.3529 34.8456 49.4609 35.2996 47.1538 35.8438L26.7837 40.6514L23.5181 41.4287Z" stroke="url(#paint4_linear_64_16462)" stroke-width="0.581381"/>
</g>
<g filter="url(#filter6_f_64_16462)" style="mix-blend-mode:screen">
<path d="M23.5181 41.4287L22.4663 41.6787L22.4575 41.6816L22.3989 41.6973L22.3901 41.7002C21.8941 41.8523 21.5421 42.0605 21.2935 42.2783V25.2861C21.2937 23.3294 22.9954 21.298 25.1128 20.7988L45.6372 15.9541L45.8979 15.8926C48.2113 15.3539 50.4121 14.9479 52.0474 15.1914C52.8869 15.3164 53.5452 15.6082 53.9956 16.1123C54.4446 16.6149 54.7221 17.3678 54.7222 18.4873V29.8125C54.7221 30.8918 54.5284 31.7278 54.1821 32.3936C53.8366 33.0578 53.3303 33.5714 52.6772 33.9922C51.3529 34.8456 49.4609 35.2996 47.1538 35.8438L26.7837 40.6514L23.5181 41.4287Z" stroke="url(#paint5_linear_64_16462)" stroke-width="0.581381"/>
</g>
<g filter="url(#filter7_f_64_16462)" style="mix-blend-mode:screen">
<path d="M23.5181 41.4287L22.4663 41.6787L22.4575 41.6816L22.3989 41.6973L22.3901 41.7002C21.8941 41.8523 21.5421 42.0605 21.2935 42.2783V25.2861C21.2937 23.3294 22.9954 21.298 25.1128 20.7988L45.6372 15.9541L45.8979 15.8926C48.2113 15.3539 50.4121 14.9479 52.0474 15.1914C52.8869 15.3164 53.5452 15.6082 53.9956 16.1123C54.4446 16.6149 54.7221 17.3678 54.7222 18.4873V29.8125C54.7221 30.8918 54.5284 31.7278 54.1821 32.3936C53.8366 33.0578 53.3303 33.5714 52.6772 33.9922C51.3529 34.8456 49.4609 35.2996 47.1538 35.8438L26.7837 40.6514L23.5181 41.4287Z" stroke="url(#paint6_linear_64_16462)" stroke-width="0.581381"/>
</g>
<g filter="url(#filter8_dddi_64_16462)">
<path d="M35.9703 42.4566L22.9685 45.5479C21.8428 45.8153 20.9297 46.9007 20.9297 47.9715V54.6837C20.9297 55.0535 21.0386 55.3733 21.2275 55.6226C21.5857 56.0951 22.2316 56.314 22.9685 56.1389L36.0416 53.0303C37.1534 52.7662 38.0578 51.7042 38.08 50.6465C38.0803 50.6332 38.0804 50.6199 38.0804 50.6067V41.9551L35.9703 42.4566Z" fill="white"/>
<path d="M35.9703 42.4566L22.9685 45.5479C21.8428 45.8153 20.9297 46.9007 20.9297 47.9715V54.6837C20.9297 55.0535 21.0386 55.3733 21.2275 55.6226C21.5857 56.0951 22.2316 56.314 22.9685 56.1389L36.0416 53.0303C37.1534 52.7662 38.0578 51.7042 38.08 50.6465C38.0803 50.6332 38.0804 50.6199 38.0804 50.6067V41.9551L35.9703 42.4566Z" fill="url(#paint7_radial_64_16462)"/>
</g>
<path d="M21.228 55.6246C21.5862 56.0971 22.232 56.3159 22.969 56.1409L36.0421 53.0322C37.1538 52.7682 38.0583 51.7062 38.0805 50.6484V51.2054C38.0805 52.3258 37.1829 53.4615 36.0763 53.7412L23.2553 56.688C22.4243 56.965 21.3293 56.6265 21.228 55.6246Z" fill="white" fill-opacity="0.8"/>
<path d="M21.228 55.6246C21.5862 56.0971 22.232 56.3159 22.969 56.1409L36.0421 53.0322C37.1538 52.7682 38.0583 51.7062 38.0805 50.6484V51.2054C38.0805 52.3258 37.1829 53.4615 36.0763 53.7412L23.2553 56.688C22.4243 56.965 21.3293 56.6265 21.228 55.6246Z" fill="#F23C00"/>
<path d="M21.228 55.6246C21.5862 56.0971 22.232 56.3159 22.969 56.1409L36.0421 53.0322C37.1538 52.7682 38.0583 51.7062 38.0805 50.6484V51.2054C38.0805 52.3258 37.1829 53.4615 36.0763 53.7412L23.2553 56.688C22.4243 56.965 21.3293 56.6265 21.228 55.6246Z" fill="url(#paint8_linear_64_16462)"/>
<path d="M21.228 55.6246C21.5862 56.0971 22.232 56.3159 22.969 56.1409L36.0421 53.0322C37.1538 52.7682 38.0583 51.7062 38.0805 50.6484V51.2054C38.0805 52.3258 37.1829 53.4615 36.0763 53.7412L23.2553 56.688C22.4243 56.965 21.3293 56.6265 21.228 55.6246Z" fill="url(#paint9_linear_64_16462)"/>
<path d="M37.79 50.6064C37.79 51.4702 37.0816 52.3858 36.1611 52.6943L35.9746 52.7471L22.9014 55.8564C22.4077 55.9737 21.9869 55.884 21.6963 55.6768C21.4086 55.4714 21.2207 55.1313 21.2207 54.6836V47.9717C21.2207 47.0504 22.0265 46.0709 23.0361 45.8311L36.0371 42.7393L37.79 42.3223V50.6064Z" stroke="white" stroke-opacity="0.2" stroke-width="0.581381"/>
<path d="M37.79 50.6064C37.79 51.4702 37.0816 52.3858 36.1611 52.6943L35.9746 52.7471L22.9014 55.8564C22.4077 55.9737 21.9869 55.884 21.6963 55.6768C21.4086 55.4714 21.2207 55.1313 21.2207 54.6836V47.9717C21.2207 47.0504 22.0265 46.0709 23.0361 45.8311L36.0371 42.7393L37.79 42.3223V50.6064Z" stroke="url(#paint10_linear_64_16462)" stroke-opacity="0.6" stroke-width="0.581381"/>
<g opacity="0.4" filter="url(#filter9_f_64_16462)" style="mix-blend-mode:screen">
<path d="M37.79 50.6064C37.79 51.4702 37.0816 52.3858 36.1611 52.6943L35.9746 52.7471L22.9014 55.8564C22.4077 55.9737 21.9869 55.884 21.6963 55.6768C21.4086 55.4714 21.2207 55.1313 21.2207 54.6836V47.9717C21.2207 47.0504 22.0265 46.0709 23.0361 45.8311L36.0371 42.7393L37.79 42.3223V50.6064Z" stroke="url(#paint11_linear_64_16462)" stroke-width="0.581381"/>
</g>
<g opacity="0.8" filter="url(#filter10_f_64_16462)" style="mix-blend-mode:screen">
<path d="M37.79 50.6064C37.79 51.4702 37.0816 52.3858 36.1611 52.6943L35.9746 52.7471L22.9014 55.8564C22.4077 55.9737 21.9869 55.884 21.6963 55.6768C21.4086 55.4714 21.2207 55.1313 21.2207 54.6836V47.9717C21.2207 47.0504 22.0265 46.0709 23.0361 45.8311L36.0371 42.7393L37.79 42.3223V50.6064Z" stroke="url(#paint12_linear_64_16462)" stroke-width="0.581381"/>
</g>
<g filter="url(#filter11_f_64_16462)" style="mix-blend-mode:screen">
<path d="M37.79 50.6064C37.79 51.4702 37.0816 52.3858 36.1611 52.6943L35.9746 52.7471L22.9014 55.8564C22.4077 55.9737 21.9869 55.884 21.6963 55.6768C21.4086 55.4714 21.2207 55.1313 21.2207 54.6836V47.9717C21.2207 47.0504 22.0265 46.0709 23.0361 45.8311L36.0371 42.7393L37.79 42.3223V50.6064Z" stroke="url(#paint13_linear_64_16462)" stroke-width="0.581381"/>
</g>
<g filter="url(#filter12_f_64_16462)" style="mix-blend-mode:screen">
<ellipse cx="22.2642" cy="22.7635" rx="0.470993" ry="1.57988" transform="rotate(37.4287 22.2642 22.7635)" fill="white"/>
</g>
<g filter="url(#filter13_f_64_16462)" style="mix-blend-mode:screen">
<ellipse cx="21.6698" cy="46.738" rx="0.390131" ry="0.938197" transform="rotate(37.4287 21.6698 46.738)" fill="white"/>
</g>
<g filter="url(#filter14_f_64_16462)" style="mix-blend-mode:screen">
<ellipse cx="37.5068" cy="51.5642" rx="0.390131" ry="0.938197" transform="rotate(37.4287 37.5068 51.5642)" fill="white"/>
</g>
<g filter="url(#filter15_f_64_16462)" style="mix-blend-mode:screen">
<ellipse cx="21.6695" cy="46.7375" rx="0.279" ry="0.670946" transform="rotate(37.4287 21.6695 46.7375)" fill="white"/>
</g>
<g filter="url(#filter16_f_64_16462)" style="mix-blend-mode:screen">
<ellipse cx="22.625" cy="45.9817" rx="0.279" ry="0.670946" transform="rotate(65.4623 22.625 45.9817)" fill="white"/>
</g>
<g filter="url(#filter17_f_64_16462)" style="mix-blend-mode:screen">
<ellipse cx="37.507" cy="51.5657" rx="0.279" ry="0.670946" transform="rotate(37.4287 37.507 51.5657)" fill="white"/>
</g>
<g filter="url(#filter18_f_64_16462)" style="mix-blend-mode:screen">
<ellipse cx="37.7582" cy="50.6033" rx="0.279" ry="0.670946" transform="rotate(6.73846 37.7582 50.6033)" fill="white"/>
</g>
<g filter="url(#filter19_f_64_16462)" style="mix-blend-mode:screen">
<ellipse cx="53.9488" cy="32.6463" rx="0.470993" ry="1.57988" transform="rotate(37.4287 53.9488 32.6463)" fill="white"/>
</g>
<g filter="url(#filter20_f_64_16462)" style="mix-blend-mode:screen">
<ellipse cx="22.2638" cy="22.7641" rx="0.205213" ry="1.57988" transform="rotate(37.4287 22.2638 22.7641)" fill="white"/>
</g>
<g filter="url(#filter21_f_64_16462)" style="mix-blend-mode:screen">
<ellipse cx="22.1201" cy="23.0268" rx="0.164136" ry="1.57988" transform="rotate(32.9119 22.1201 23.0268)" fill="white"/>
</g>
<g filter="url(#filter22_f_64_16462)" style="mix-blend-mode:screen">
<ellipse cx="22.9927" cy="21.9882" rx="0.160822" ry="1.57988" transform="rotate(48.6786 22.9927 21.9882)" fill="white"/>
</g>
<g filter="url(#filter23_f_64_16462)" style="mix-blend-mode:screen">
<path d="M54.2621 32.8498C53.7533 33.5586 53.1643 34.052 53.0723 33.9859C52.9802 33.9198 53.3181 33.2916 53.827 32.5828C54.3358 31.874 54.6545 31.3302 54.7466 31.3963C54.8387 31.4624 54.771 32.141 54.2621 32.8498Z" fill="white"/>
</g>
</g>
</g>
<mask id="path-29-outside-1_64_16462" maskUnits="userSpaceOnUse" x="91.7921" y="4.89648" width="358" height="63" fill="black">
<rect fill="white" x="91.7921" y="4.89648" width="358" height="63"/>
<path d="M109.914 20.7674C118.305 20.7674 125.331 27.7936 125.331 36.7298C125.331 45.7343 118.305 52.7605 109.914 52.7605C105.753 52.7605 102.206 51.0551 99.6819 48.2582V67.3586H92.7921V21.9271L99.1361 20.9721V25.9518C101.66 22.7457 105.412 20.7674 109.914 20.7674ZM108.823 46.6893C114.348 46.6893 118.578 42.3235 118.578 36.7298C118.578 31.2044 114.348 26.8386 108.823 26.8386C103.434 26.8386 99.1361 31.2044 99.1361 36.7298C99.1361 42.3235 103.434 46.6893 108.823 46.6893Z"/>
<path d="M136.114 26.0882C138.092 22.7457 141.435 20.9721 146.347 20.9721V27.4526C139.934 27.4526 136.524 30.5222 136.524 37.0027V52.0101H129.634V21.9953L136.114 21.0403V26.0882Z"/>
<path d="M163.279 47.1668C167.235 47.1668 171.055 45.5296 174.603 41.846L176.854 47.3714C173.102 50.7822 168.327 52.7605 163.211 52.7605C153.66 52.7605 146.703 45.8025 146.703 36.7981C146.703 27.7936 153.729 20.7674 162.938 20.7674C170.646 20.7674 176.786 25.8154 177.741 34.2741L154.138 41.9142C155.775 45.0521 158.981 47.1668 163.279 47.1668ZM162.938 26.2929C157.412 26.2929 153.183 30.7269 152.978 36.5252L170.51 30.7951C169.214 27.9983 166.349 26.2929 162.938 26.2929Z"/>
<path d="M189.978 52.8287C186.567 52.8287 183.02 51.6008 180.086 49.8272L181.042 44.2335C184.043 46.1436 186.772 47.235 189.568 47.235C192.297 47.235 194.071 45.8025 194.071 43.415C194.071 41.6414 193.116 40.4135 189.364 39.1856L188.136 38.7763C183.429 37.2074 180.769 34.0012 180.769 29.6354C180.769 24.5193 184.793 20.6992 190.796 20.6992C193.593 20.6992 196.663 21.586 199.46 22.9503L198.436 28.544C195.708 26.975 192.843 26.1565 190.933 26.1565C188.409 26.1565 187.113 27.589 187.113 29.4308C187.113 30.9997 187.931 32.1594 191.206 33.3191L192.57 33.7966C197.822 35.502 200.619 38.7081 200.619 43.3467C200.619 48.9404 196.39 52.8287 189.978 52.8287Z"/>
<path d="M219.642 47.1668C223.598 47.1668 227.418 45.5296 230.966 41.846L233.217 47.3714C229.465 50.7822 224.69 52.7605 219.574 52.7605C210.023 52.7605 203.065 45.8025 203.065 36.7981C203.065 27.7936 210.092 20.7674 219.301 20.7674C227.009 20.7674 233.148 25.8154 234.103 34.2741L210.501 41.9142C212.138 45.0521 215.344 47.1668 219.642 47.1668ZM219.301 26.2929C213.775 26.2929 209.546 30.7269 209.341 36.5252L226.873 30.7951C225.577 27.9983 222.712 26.2929 219.301 26.2929Z"/>
<path d="M254.595 20.7674C261.689 20.7674 266.328 25.5425 266.328 33.4555V52.0101H259.438V34.2741C259.438 29.4308 256.709 26.8386 252.753 26.8386C248.455 26.8386 245.386 29.9083 245.386 34.7516V52.0101H238.496V21.9953L245.113 20.9721V24.9286C247.364 22.2682 250.706 20.7674 254.595 20.7674Z"/>
<path d="M287.479 27.3843H279.088V41.9142C279.088 44.7793 280.657 46.4164 283.318 46.4164C284.75 46.4164 286.456 45.9389 287.479 45.5296V51.5326C286.251 52.0783 284.204 52.5558 282.022 52.5558C275.746 52.5558 272.199 48.804 272.199 42.5964V15.3102L279.088 11.5584V21.5178H287.479V27.3843Z"/>
<path d="M314.929 21.9271L321.614 20.9039V52.0101H315.134V47.7807C312.61 50.8504 308.926 52.7605 304.492 52.7605C295.965 52.7605 289.075 45.7343 289.075 36.7981C289.075 27.7936 295.965 20.7674 304.424 20.7674C308.79 20.7674 312.405 22.6093 314.929 25.5425V21.9271ZM305.447 46.7575C310.836 46.7575 315.134 42.3917 315.134 36.7298C315.134 31.1362 310.836 26.7704 305.447 26.7704C300.058 26.7704 295.829 31.1362 295.829 36.7298C295.829 42.3917 300.058 46.7575 305.447 46.7575Z"/>
<path d="M343.242 27.3843H334.852V41.9142C334.852 44.7793 336.421 46.4164 339.081 46.4164C340.514 46.4164 342.219 45.9389 343.242 45.5296V51.5326C342.014 52.0783 339.968 52.5558 337.785 52.5558C331.509 52.5558 327.962 48.804 327.962 42.5964V15.3102L334.852 11.5584V21.5178H343.242V27.3843Z"/>
<path d="M351.04 14.6281C348.516 14.6281 346.538 12.718 346.538 10.2623C346.538 7.80652 348.516 5.89648 351.04 5.89648C353.564 5.89648 355.542 7.80652 355.542 10.2623C355.542 12.718 353.564 14.6281 351.04 14.6281ZM347.629 52.0101V22.0635L354.519 20.9721V52.0101H347.629Z"/>
<path d="M375.539 52.7605C366.262 52.7605 359.031 45.8025 359.031 36.7981C359.031 27.7254 366.262 20.7674 375.539 20.7674C384.748 20.7674 391.979 27.7254 391.979 36.7981C391.979 45.8025 384.748 52.7605 375.539 52.7605ZM375.539 46.6893C381.064 46.6893 385.294 42.3917 385.294 36.7298C385.294 31.1362 381.064 26.8386 375.539 26.8386C369.945 26.8386 365.784 31.1362 365.784 36.7298C365.784 42.3917 369.945 46.6893 375.539 46.6893Z"/>
<path d="M412.425 20.7674C419.52 20.7674 424.158 25.5425 424.158 33.4555V52.0101H417.269V34.2741C417.269 29.4308 414.54 26.8386 410.584 26.8386C406.286 26.8386 403.216 29.9083 403.216 34.7516V52.0101H396.327V21.9953L402.944 20.9721V24.9286C405.195 22.2682 408.537 20.7674 412.425 20.7674Z"/>
<path d="M438.215 52.8287C434.804 52.8287 431.257 51.6008 428.324 49.8272L429.279 44.2335C432.28 46.1436 435.009 47.235 437.806 47.235C440.534 47.235 442.308 45.8025 442.308 43.415C442.308 41.6414 441.353 40.4135 437.601 39.1856L436.373 38.7763C431.666 37.2074 429.006 34.0012 429.006 29.6354C429.006 24.5193 433.031 20.6992 439.034 20.6992C441.831 20.6992 444.9 21.586 447.697 22.9503L446.674 28.544C443.945 26.975 441.08 26.1565 439.17 26.1565C436.646 26.1565 435.35 27.589 435.35 29.4308C435.35 30.9997 436.169 32.1594 439.443 33.3191L440.807 33.7966C446.06 35.502 448.857 38.7081 448.857 43.3467C448.857 48.9404 444.627 52.8287 438.215 52.8287Z"/>
</mask>
<path d="M109.914 20.7674C118.305 20.7674 125.331 27.7936 125.331 36.7298C125.331 45.7343 118.305 52.7605 109.914 52.7605C105.753 52.7605 102.206 51.0551 99.6819 48.2582V67.3586H92.7921V21.9271L99.1361 20.9721V25.9518C101.66 22.7457 105.412 20.7674 109.914 20.7674ZM108.823 46.6893C114.348 46.6893 118.578 42.3235 118.578 36.7298C118.578 31.2044 114.348 26.8386 108.823 26.8386C103.434 26.8386 99.1361 31.2044 99.1361 36.7298C99.1361 42.3235 103.434 46.6893 108.823 46.6893Z" fill="white"/>
<path d="M136.114 26.0882C138.092 22.7457 141.435 20.9721 146.347 20.9721V27.4526C139.934 27.4526 136.524 30.5222 136.524 37.0027V52.0101H129.634V21.9953L136.114 21.0403V26.0882Z" fill="white"/>
<path d="M163.279 47.1668C167.235 47.1668 171.055 45.5296 174.603 41.846L176.854 47.3714C173.102 50.7822 168.327 52.7605 163.211 52.7605C153.66 52.7605 146.703 45.8025 146.703 36.7981C146.703 27.7936 153.729 20.7674 162.938 20.7674C170.646 20.7674 176.786 25.8154 177.741 34.2741L154.138 41.9142C155.775 45.0521 158.981 47.1668 163.279 47.1668ZM162.938 26.2929C157.412 26.2929 153.183 30.7269 152.978 36.5252L170.51 30.7951C169.214 27.9983 166.349 26.2929 162.938 26.2929Z" fill="white"/>
<path d="M189.978 52.8287C186.567 52.8287 183.02 51.6008 180.086 49.8272L181.042 44.2335C184.043 46.1436 186.772 47.235 189.568 47.235C192.297 47.235 194.071 45.8025 194.071 43.415C194.071 41.6414 193.116 40.4135 189.364 39.1856L188.136 38.7763C183.429 37.2074 180.769 34.0012 180.769 29.6354C180.769 24.5193 184.793 20.6992 190.796 20.6992C193.593 20.6992 196.663 21.586 199.46 22.9503L198.436 28.544C195.708 26.975 192.843 26.1565 190.933 26.1565C188.409 26.1565 187.113 27.589 187.113 29.4308C187.113 30.9997 187.931 32.1594 191.206 33.3191L192.57 33.7966C197.822 35.502 200.619 38.7081 200.619 43.3467C200.619 48.9404 196.39 52.8287 189.978 52.8287Z" fill="white"/>
<path d="M219.642 47.1668C223.598 47.1668 227.418 45.5296 230.966 41.846L233.217 47.3714C229.465 50.7822 224.69 52.7605 219.574 52.7605C210.023 52.7605 203.065 45.8025 203.065 36.7981C203.065 27.7936 210.092 20.7674 219.301 20.7674C227.009 20.7674 233.148 25.8154 234.103 34.2741L210.501 41.9142C212.138 45.0521 215.344 47.1668 219.642 47.1668ZM219.301 26.2929C213.775 26.2929 209.546 30.7269 209.341 36.5252L226.873 30.7951C225.577 27.9983 222.712 26.2929 219.301 26.2929Z" fill="white"/>
<path d="M254.595 20.7674C261.689 20.7674 266.328 25.5425 266.328 33.4555V52.0101H259.438V34.2741C259.438 29.4308 256.709 26.8386 252.753 26.8386C248.455 26.8386 245.386 29.9083 245.386 34.7516V52.0101H238.496V21.9953L245.113 20.9721V24.9286C247.364 22.2682 250.706 20.7674 254.595 20.7674Z" fill="white"/>
<path d="M287.479 27.3843H279.088V41.9142C279.088 44.7793 280.657 46.4164 283.318 46.4164C284.75 46.4164 286.456 45.9389 287.479 45.5296V51.5326C286.251 52.0783 284.204 52.5558 282.022 52.5558C275.746 52.5558 272.199 48.804 272.199 42.5964V15.3102L279.088 11.5584V21.5178H287.479V27.3843Z" fill="white"/>
<path d="M314.929 21.9271L321.614 20.9039V52.0101H315.134V47.7807C312.61 50.8504 308.926 52.7605 304.492 52.7605C295.965 52.7605 289.075 45.7343 289.075 36.7981C289.075 27.7936 295.965 20.7674 304.424 20.7674C308.79 20.7674 312.405 22.6093 314.929 25.5425V21.9271ZM305.447 46.7575C310.836 46.7575 315.134 42.3917 315.134 36.7298C315.134 31.1362 310.836 26.7704 305.447 26.7704C300.058 26.7704 295.829 31.1362 295.829 36.7298C295.829 42.3917 300.058 46.7575 305.447 46.7575Z" fill="white"/>
<path d="M343.242 27.3843H334.852V41.9142C334.852 44.7793 336.421 46.4164 339.081 46.4164C340.514 46.4164 342.219 45.9389 343.242 45.5296V51.5326C342.014 52.0783 339.968 52.5558 337.785 52.5558C331.509 52.5558 327.962 48.804 327.962 42.5964V15.3102L334.852 11.5584V21.5178H343.242V27.3843Z" fill="white"/>
<path d="M351.04 14.6281C348.516 14.6281 346.538 12.718 346.538 10.2623C346.538 7.80652 348.516 5.89648 351.04 5.89648C353.564 5.89648 355.542 7.80652 355.542 10.2623C355.542 12.718 353.564 14.6281 351.04 14.6281ZM347.629 52.0101V22.0635L354.519 20.9721V52.0101H347.629Z" fill="white"/>
<path d="M375.539 52.7605C366.262 52.7605 359.031 45.8025 359.031 36.7981C359.031 27.7254 366.262 20.7674 375.539 20.7674C384.748 20.7674 391.979 27.7254 391.979 36.7981C391.979 45.8025 384.748 52.7605 375.539 52.7605ZM375.539 46.6893C381.064 46.6893 385.294 42.3917 385.294 36.7298C385.294 31.1362 381.064 26.8386 375.539 26.8386C369.945 26.8386 365.784 31.1362 365.784 36.7298C365.784 42.3917 369.945 46.6893 375.539 46.6893Z" fill="white"/>
<path d="M412.425 20.7674C419.52 20.7674 424.158 25.5425 424.158 33.4555V52.0101H417.269V34.2741C417.269 29.4308 414.54 26.8386 410.584 26.8386C406.286 26.8386 403.216 29.9083 403.216 34.7516V52.0101H396.327V21.9953L402.944 20.9721V24.9286C405.195 22.2682 408.537 20.7674 412.425 20.7674Z" fill="white"/>
<path d="M438.215 52.8287C434.804 52.8287 431.257 51.6008 428.324 49.8272L429.279 44.2335C432.28 46.1436 435.009 47.235 437.806 47.235C440.534 47.235 442.308 45.8025 442.308 43.415C442.308 41.6414 441.353 40.4135 437.601 39.1856L436.373 38.7763C431.666 37.2074 429.006 34.0012 429.006 29.6354C429.006 24.5193 433.031 20.6992 439.034 20.6992C441.831 20.6992 444.9 21.586 447.697 22.9503L446.674 28.544C443.945 26.975 441.08 26.1565 439.17 26.1565C436.646 26.1565 435.35 27.589 435.35 29.4308C435.35 30.9997 436.169 32.1594 439.443 33.3191L440.807 33.7966C446.06 35.502 448.857 38.7081 448.857 43.3467C448.857 48.9404 444.627 52.8287 438.215 52.8287Z" fill="white"/>
<path d="M109.914 20.7674C118.305 20.7674 125.331 27.7936 125.331 36.7298C125.331 45.7343 118.305 52.7605 109.914 52.7605C105.753 52.7605 102.206 51.0551 99.6819 48.2582V67.3586H92.7921V21.9271L99.1361 20.9721V25.9518C101.66 22.7457 105.412 20.7674 109.914 20.7674ZM108.823 46.6893C114.348 46.6893 118.578 42.3235 118.578 36.7298C118.578 31.2044 114.348 26.8386 108.823 26.8386C103.434 26.8386 99.1361 31.2044 99.1361 36.7298C99.1361 42.3235 103.434 46.6893 108.823 46.6893Z" stroke="white" stroke-width="0.775175" mask="url(#path-29-outside-1_64_16462)"/>
<path d="M136.114 26.0882C138.092 22.7457 141.435 20.9721 146.347 20.9721V27.4526C139.934 27.4526 136.524 30.5222 136.524 37.0027V52.0101H129.634V21.9953L136.114 21.0403V26.0882Z" stroke="white" stroke-width="0.775175" mask="url(#path-29-outside-1_64_16462)"/>
<path d="M163.279 47.1668C167.235 47.1668 171.055 45.5296 174.603 41.846L176.854 47.3714C173.102 50.7822 168.327 52.7605 163.211 52.7605C153.66 52.7605 146.703 45.8025 146.703 36.7981C146.703 27.7936 153.729 20.7674 162.938 20.7674C170.646 20.7674 176.786 25.8154 177.741 34.2741L154.138 41.9142C155.775 45.0521 158.981 47.1668 163.279 47.1668ZM162.938 26.2929C157.412 26.2929 153.183 30.7269 152.978 36.5252L170.51 30.7951C169.214 27.9983 166.349 26.2929 162.938 26.2929Z" stroke="white" stroke-width="0.775175" mask="url(#path-29-outside-1_64_16462)"/>
<path d="M189.978 52.8287C186.567 52.8287 183.02 51.6008 180.086 49.8272L181.042 44.2335C184.043 46.1436 186.772 47.235 189.568 47.235C192.297 47.235 194.071 45.8025 194.071 43.415C194.071 41.6414 193.116 40.4135 189.364 39.1856L188.136 38.7763C183.429 37.2074 180.769 34.0012 180.769 29.6354C180.769 24.5193 184.793 20.6992 190.796 20.6992C193.593 20.6992 196.663 21.586 199.46 22.9503L198.436 28.544C195.708 26.975 192.843 26.1565 190.933 26.1565C188.409 26.1565 187.113 27.589 187.113 29.4308C187.113 30.9997 187.931 32.1594 191.206 33.3191L192.57 33.7966C197.822 35.502 200.619 38.7081 200.619 43.3467C200.619 48.9404 196.39 52.8287 189.978 52.8287Z" stroke="white" stroke-width="0.775175" mask="url(#path-29-outside-1_64_16462)"/>
<path d="M219.642 47.1668C223.598 47.1668 227.418 45.5296 230.966 41.846L233.217 47.3714C229.465 50.7822 224.69 52.7605 219.574 52.7605C210.023 52.7605 203.065 45.8025 203.065 36.7981C203.065 27.7936 210.092 20.7674 219.301 20.7674C227.009 20.7674 233.148 25.8154 234.103 34.2741L210.501 41.9142C212.138 45.0521 215.344 47.1668 219.642 47.1668ZM219.301 26.2929C213.775 26.2929 209.546 30.7269 209.341 36.5252L226.873 30.7951C225.577 27.9983 222.712 26.2929 219.301 26.2929Z" stroke="white" stroke-width="0.775175" mask="url(#path-29-outside-1_64_16462)"/>
<path d="M254.595 20.7674C261.689 20.7674 266.328 25.5425 266.328 33.4555V52.0101H259.438V34.2741C259.438 29.4308 256.709 26.8386 252.753 26.8386C248.455 26.8386 245.386 29.9083 245.386 34.7516V52.0101H238.496V21.9953L245.113 20.9721V24.9286C247.364 22.2682 250.706 20.7674 254.595 20.7674Z" stroke="white" stroke-width="0.775175" mask="url(#path-29-outside-1_64_16462)"/>
<path d="M287.479 27.3843H279.088V41.9142C279.088 44.7793 280.657 46.4164 283.318 46.4164C284.75 46.4164 286.456 45.9389 287.479 45.5296V51.5326C286.251 52.0783 284.204 52.5558 282.022 52.5558C275.746 52.5558 272.199 48.804 272.199 42.5964V15.3102L279.088 11.5584V21.5178H287.479V27.3843Z" stroke="white" stroke-width="0.775175" mask="url(#path-29-outside-1_64_16462)"/>
<path d="M314.929 21.9271L321.614 20.9039V52.0101H315.134V47.7807C312.61 50.8504 308.926 52.7605 304.492 52.7605C295.965 52.7605 289.075 45.7343 289.075 36.7981C289.075 27.7936 295.965 20.7674 304.424 20.7674C308.79 20.7674 312.405 22.6093 314.929 25.5425V21.9271ZM305.447 46.7575C310.836 46.7575 315.134 42.3917 315.134 36.7298C315.134 31.1362 310.836 26.7704 305.447 26.7704C300.058 26.7704 295.829 31.1362 295.829 36.7298C295.829 42.3917 300.058 46.7575 305.447 46.7575Z" stroke="white" stroke-width="0.775175" mask="url(#path-29-outside-1_64_16462)"/>
<path d="M343.242 27.3843H334.852V41.9142C334.852 44.7793 336.421 46.4164 339.081 46.4164C340.514 46.4164 342.219 45.9389 343.242 45.5296V51.5326C342.014 52.0783 339.968 52.5558 337.785 52.5558C331.509 52.5558 327.962 48.804 327.962 42.5964V15.3102L334.852 11.5584V21.5178H343.242V27.3843Z" stroke="white" stroke-width="0.775175" mask="url(#path-29-outside-1_64_16462)"/>
<path d="M351.04 14.6281C348.516 14.6281 346.538 12.718 346.538 10.2623C346.538 7.80652 348.516 5.89648 351.04 5.89648C353.564 5.89648 355.542 7.80652 355.542 10.2623C355.542 12.718 353.564 14.6281 351.04 14.6281ZM347.629 52.0101V22.0635L354.519 20.9721V52.0101H347.629Z" stroke="white" stroke-width="0.775175" mask="url(#path-29-outside-1_64_16462)"/>
<path d="M375.539 52.7605C366.262 52.7605 359.031 45.8025 359.031 36.7981C359.031 27.7254 366.262 20.7674 375.539 20.7674C384.748 20.7674 391.979 27.7254 391.979 36.7981C391.979 45.8025 384.748 52.7605 375.539 52.7605ZM375.539 46.6893C381.064 46.6893 385.294 42.3917 385.294 36.7298C385.294 31.1362 381.064 26.8386 375.539 26.8386C369.945 26.8386 365.784 31.1362 365.784 36.7298C365.784 42.3917 369.945 46.6893 375.539 46.6893Z" stroke="white" stroke-width="0.775175" mask="url(#path-29-outside-1_64_16462)"/>
<path d="M412.425 20.7674C419.52 20.7674 424.158 25.5425 424.158 33.4555V52.0101H417.269V34.2741C417.269 29.4308 414.54 26.8386 410.584 26.8386C406.286 26.8386 403.216 29.9083 403.216 34.7516V52.0101H396.327V21.9953L402.944 20.9721V24.9286C405.195 22.2682 408.537 20.7674 412.425 20.7674Z" stroke="white" stroke-width="0.775175" mask="url(#path-29-outside-1_64_16462)"/>
<path d="M438.215 52.8287C434.804 52.8287 431.257 51.6008 428.324 49.8272L429.279 44.2335C432.28 46.1436 435.009 47.235 437.806 47.235C440.534 47.235 442.308 45.8025 442.308 43.415C442.308 41.6414 441.353 40.4135 437.601 39.1856L436.373 38.7763C431.666 37.2074 429.006 34.0012 429.006 29.6354C429.006 24.5193 433.031 20.6992 439.034 20.6992C441.831 20.6992 444.9 21.586 447.697 22.9503L446.674 28.544C443.945 26.975 441.08 26.1565 439.17 26.1565C436.646 26.1565 435.35 27.589 435.35 29.4308C435.35 30.9997 436.169 32.1594 439.443 33.3191L440.807 33.7966C446.06 35.502 448.857 38.7081 448.857 43.3467C448.857 48.9404 444.627 52.8287 438.215 52.8287Z" stroke="white" stroke-width="0.775175" mask="url(#path-29-outside-1_64_16462)"/>
<path d="M481.377 20.5732C485.61 20.5733 489.149 22.2841 491.689 25.0361V21.7607L491.853 21.7354L498.538 20.7119L498.761 20.6777V52.2041H491.893V48.3047C489.348 51.1816 485.743 52.954 481.446 52.9541C472.806 52.9541 465.834 45.8356 465.834 36.7979C465.834 27.6932 472.805 20.5732 481.377 20.5732ZM457.661 42.5391C460.627 42.5391 462.97 44.8039 462.97 47.7129C462.97 50.6251 460.624 52.8174 457.661 52.8174C454.767 52.8174 452.351 50.6268 452.351 47.7129C452.351 44.8023 454.764 42.5391 457.661 42.5391ZM512.544 52.2041H505.267V21.8984L505.43 21.8721L512.321 20.7803L512.544 20.7451V52.2041ZM482.401 26.9639C477.125 26.9639 472.976 31.2368 472.976 36.7295C472.976 42.2915 477.126 46.5635 482.401 46.5635C487.677 46.5632 491.893 42.2895 491.893 36.7295C491.893 31.2388 487.678 26.9641 482.401 26.9639ZM508.871 5.70312C511.497 5.70312 513.568 7.6941 513.568 10.2627C513.568 12.8311 511.496 14.8223 508.871 14.8223C506.247 14.8222 504.175 12.831 504.175 10.2627C504.175 7.69415 506.246 5.70319 508.871 5.70312Z" fill="#767676" stroke="white" stroke-width="0.387587"/>
<defs>
<filter id="filter0_diiii_64_16462" x="-4.24385e-05" y="-3.19662" width="73.8353" height="77.0329" filterUnits="userSpaceOnUse" color-interpolation-filters="sRGB">
<feFlood flood-opacity="0" result="BackgroundImageFix"/>
<feColorMatrix in="SourceAlpha" type="matrix" values="0 0 0 0 0 0 0 0 0 0 0 0 0 0 0 0 0 0 127 0" result="hardAlpha"/>
<feOffset dy="0.290691"/>
<feGaussianBlur stdDeviation="0.581381"/>
<feComposite in2="hardAlpha" operator="out"/>
<feColorMatrix type="matrix" values="0 0 0 0 0 0 0 0 0 0 0 0 0 0 0 0 0 0 0.15 0"/>
<feBlend mode="normal" in2="BackgroundImageFix" result="effect1_dropShadow_64_16462"/>
<feBlend mode="normal" in="SourceGraphic" in2="effect1_dropShadow_64_16462" result="shape"/>
<feColorMatrix in="SourceAlpha" type="matrix" values="0 0 0 0 0 0 0 0 0 0 0 0 0 0 0 0 0 0 127 0" result="hardAlpha"/>
<feOffset dy="-4.06967"/>
<feGaussianBlur stdDeviation="3.48829"/>
<feComposite in2="hardAlpha" operator="arithmetic" k2="-1" k3="1"/>
<feColorMatrix type="matrix" values="0 0 0 0 0.719764 0 0 0 0 0.0239921 0 0 0 0 0 0 0 0 1 0"/>
<feBlend mode="normal" in2="shape" result="effect2_innerShadow_64_16462"/>
<feColorMatrix in="SourceAlpha" type="matrix" values="0 0 0 0 0 0 0 0 0 0 0 0 0 0 0 0 0 0 127 0" result="hardAlpha"/>
<feMorphology radius="1.16276" operator="erode" in="SourceAlpha" result="effect3_innerShadow_64_16462"/>
<feOffset/>
<feGaussianBlur stdDeviation="0.581381"/>
<feComposite in2="hardAlpha" operator="arithmetic" k2="-1" k3="1"/>
<feColorMatrix type="matrix" values="0 0 0 0 1 0 0 0 0 0.524941 0 0 0 0 0.197679 0 0 0 0.2 0"/>
<feBlend mode="normal" in2="effect2_innerShadow_64_16462" result="effect3_innerShadow_64_16462"/>
<feColorMatrix in="SourceAlpha" type="matrix" values="0 0 0 0 0 0 0 0 0 0 0 0 0 0 0 0 0 0 127 0" result="hardAlpha"/>
<feOffset dy="0.581381"/>
<feGaussianBlur stdDeviation="1.16276"/>
<feComposite in2="hardAlpha" operator="arithmetic" k2="-1" k3="1"/>
<feColorMatrix type="matrix" values="0 0 0 0 1 0 0 0 0 0.816735 0 0 0 0 0.690486 0 0 0 0.8 0"/>
<feBlend mode="normal" in2="effect3_innerShadow_64_16462" result="effect4_innerShadow_64_16462"/>
<feColorMatrix in="SourceAlpha" type="matrix" values="0 0 0 0 0 0 0 0 0 0 0 0 0 0 0 0 0 0 127 0" result="hardAlpha"/>
<feMorphology radius="1.16276" operator="erode" in="SourceAlpha" result="effect5_innerShadow_64_16462"/>
<feOffset/>
<feComposite in2="hardAlpha" operator="arithmetic" k2="-1" k3="1"/>
<feColorMatrix type="matrix" values="0 0 0 0 1 0 0 0 0 0.589118 0 0 0 0 0.296086 0 0 0 0.44 0"/>
<feBlend mode="normal" in2="effect4_innerShadow_64_16462" result="effect5_innerShadow_64_16462"/>
</filter>
<filter id="filter1_f_64_16462" x="-7.55801" y="-9.00979" width="88.9513" height="49.127" filterUnits="userSpaceOnUse" color-interpolation-filters="sRGB">
<feFlood flood-opacity="0" result="BackgroundImageFix"/>
<feBlend mode="normal" in="SourceGraphic" in2="BackgroundImageFix" result="shape"/>
<feGaussianBlur stdDeviation="6.97657" result="effect1_foregroundBlur_64_16462"/>
</filter>
<filter id="filter2_f_64_16462" x="12.7902" y="5.52472" width="51.1615" height="32.849" filterUnits="userSpaceOnUse" color-interpolation-filters="sRGB">
<feFlood flood-opacity="0" result="BackgroundImageFix"/>
<feBlend mode="normal" in="SourceGraphic" in2="BackgroundImageFix" result="shape"/>
<feGaussianBlur stdDeviation="5.81381" result="effect1_foregroundBlur_64_16462"/>
</filter>
<filter id="filter3_f_64_16462" x="10.1743" y="37.5013" width="40.406" height="41.2787" filterUnits="userSpaceOnUse" color-interpolation-filters="sRGB">
<feFlood flood-opacity="0" result="BackgroundImageFix"/>
<feBlend mode="normal" in="SourceGraphic" in2="BackgroundImageFix" result="shape"/>
<feGaussianBlur stdDeviation="5.81381" result="effect1_foregroundBlur_64_16462"/>
</filter>
<filter id="filter4_dddi_64_16462" x="16.3514" y="12.5026" width="43.313" height="38.9512" filterUnits="userSpaceOnUse" color-interpolation-filters="sRGB">
<feFlood flood-opacity="0" result="BackgroundImageFix"/>
<feColorMatrix in="SourceAlpha" type="matrix" values="0 0 0 0 0 0 0 0 0 0 0 0 0 0 0 0 0 0 127 0" result="hardAlpha"/>
<feOffset dy="1.16276"/>
<feGaussianBlur stdDeviation="0.290691"/>
<feComposite in2="hardAlpha" operator="out"/>
<feColorMatrix type="matrix" values="0 0 0 0 0.684927 0 0 0 0 0.154656 0 0 0 0 0.0329549 0 0 0 0.25 0"/>
<feBlend mode="normal" in2="BackgroundImageFix" result="effect1_dropShadow_64_16462"/>
<feColorMatrix in="SourceAlpha" type="matrix" values="0 0 0 0 0 0 0 0 0 0 0 0 0 0 0 0 0 0 127 0" result="hardAlpha"/>
<feOffset dy="1.16276"/>
<feGaussianBlur stdDeviation="1.74414"/>
<feComposite in2="hardAlpha" operator="out"/>
<feColorMatrix type="matrix" values="0 0 0 0 0.684927 0 0 0 0 0.154656 0 0 0 0 0.0329549 0 0 0 0.25 0"/>
<feBlend mode="normal" in2="effect1_dropShadow_64_16462" result="effect2_dropShadow_64_16462"/>
<feColorMatrix in="SourceAlpha" type="matrix" values="0 0 0 0 0 0 0 0 0 0 0 0 0 0 0 0 0 0 127 0" result="hardAlpha"/>
<feOffset dy="3.48829"/>
<feGaussianBlur stdDeviation="2.32552"/>
<feComposite in2="hardAlpha" operator="out"/>
<feColorMatrix type="matrix" values="0 0 0 0 0.859976 0 0 0 0 0.164509 0 0 0 0 0.00489357 0 0 0 0.8 0"/>
<feBlend mode="normal" in2="effect2_dropShadow_64_16462" result="effect3_dropShadow_64_16462"/>
<feBlend mode="normal" in="SourceGraphic" in2="effect3_dropShadow_64_16462" result="shape"/>
<feColorMatrix in="SourceAlpha" type="matrix" values="0 0 0 0 0 0 0 0 0 0 0 0 0 0 0 0 0 0 127 0" result="hardAlpha"/>
<feOffset dy="0.775175"/>
<feGaussianBlur stdDeviation="0.387587"/>
<feComposite in2="hardAlpha" operator="arithmetic" k2="-1" k3="1"/>
<feColorMatrix type="matrix" values="0 0 0 0 1 0 0 0 0 0.416667 0 0 0 0 0 0 0 0 0.25 0"/>
<feBlend mode="normal" in2="shape" result="effect4_innerShadow_64_16462"/>
</filter>
<filter id="filter5_f_64_16462" x="20.4211" y="14.2467" width="35.1735" height="29.651" filterUnits="userSpaceOnUse" color-interpolation-filters="sRGB">
<feFlood flood-opacity="0" result="BackgroundImageFix"/>
<feBlend mode="normal" in="SourceGraphic" in2="BackgroundImageFix" result="shape"/>
<feGaussianBlur stdDeviation="0.290691" result="effect1_foregroundBlur_64_16462"/>
</filter>
<filter id="filter6_f_64_16462" x="19.8397" y="13.6654" width="36.3363" height="30.8138" filterUnits="userSpaceOnUse" color-interpolation-filters="sRGB">
<feFlood flood-opacity="0" result="BackgroundImageFix"/>
<feBlend mode="normal" in="SourceGraphic" in2="BackgroundImageFix" result="shape"/>
<feGaussianBlur stdDeviation="0.581381" result="effect1_foregroundBlur_64_16462"/>
</filter>
<filter id="filter7_f_64_16462" x="20.1304" y="13.9561" width="35.7549" height="30.2324" filterUnits="userSpaceOnUse" color-interpolation-filters="sRGB">
<feFlood flood-opacity="0" result="BackgroundImageFix"/>
<feBlend mode="normal" in="SourceGraphic" in2="BackgroundImageFix" result="shape"/>
<feGaussianBlur stdDeviation="0.436036" result="effect1_foregroundBlur_64_16462"/>
</filter>
<filter id="filter8_dddi_64_16462" x="16.2786" y="39.6296" width="26.4529" height="24.709" filterUnits="userSpaceOnUse" color-interpolation-filters="sRGB">
<feFlood flood-opacity="0" result="BackgroundImageFix"/>
<feColorMatrix in="SourceAlpha" type="matrix" values="0 0 0 0 0 0 0 0 0 0 0 0 0 0 0 0 0 0 127 0" result="hardAlpha"/>
<feOffset dy="1.16276"/>
<feGaussianBlur stdDeviation="0.581381"/>
<feComposite in2="hardAlpha" operator="out"/>
<feColorMatrix type="matrix" values="0 0 0 0 0.684927 0 0 0 0 0.154656 0 0 0 0 0.0329549 0 0 0 0.25 0"/>
<feBlend mode="normal" in2="BackgroundImageFix" result="effect1_dropShadow_64_16462"/>
<feColorMatrix in="SourceAlpha" type="matrix" values="0 0 0 0 0 0 0 0 0 0 0 0 0 0 0 0 0 0 127 0" result="hardAlpha"/>
<feOffset dy="1.16276"/>
<feGaussianBlur stdDeviation="1.74414"/>
<feComposite in2="hardAlpha" operator="out"/>
<feColorMatrix type="matrix" values="0 0 0 0 0.684927 0 0 0 0 0.154656 0 0 0 0 0.0329549 0 0 0 0.25 0"/>
<feBlend mode="normal" in2="effect1_dropShadow_64_16462" result="effect2_dropShadow_64_16462"/>
<feColorMatrix in="SourceAlpha" type="matrix" values="0 0 0 0 0 0 0 0 0 0 0 0 0 0 0 0 0 0 127 0" result="hardAlpha"/>
<feOffset dy="3.48829"/>
<feGaussianBlur stdDeviation="2.32552"/>
<feComposite in2="hardAlpha" operator="out"/>
<feColorMatrix type="matrix" values="0 0 0 0 0.71105 0 0 0 0 0.153452 0 0 0 0 0.0254786 0 0 0 0.5 0"/>
<feBlend mode="normal" in2="effect2_dropShadow_64_16462" result="effect3_dropShadow_64_16462"/>
<feBlend mode="normal" in="SourceGraphic" in2="effect3_dropShadow_64_16462" result="shape"/>
<feColorMatrix in="SourceAlpha" type="matrix" values="0 0 0 0 0 0 0 0 0 0 0 0 0 0 0 0 0 0 127 0" result="hardAlpha"/>
<feOffset dy="0.775175"/>
<feGaussianBlur stdDeviation="0.387587"/>
<feComposite in2="hardAlpha" operator="arithmetic" k2="-1" k3="1"/>
<feColorMatrix type="matrix" values="0 0 0 0 0.900409 0 0 0 0 0.402439 0 0 0 0 0.0472965 0 0 0 0.67 0"/>
<feBlend mode="normal" in2="shape" result="effect4_innerShadow_64_16462"/>
</filter>
<filter id="filter9_f_64_16462" x="20.3483" y="41.3737" width="18.3135" height="15.4069" filterUnits="userSpaceOnUse" color-interpolation-filters="sRGB">
<feFlood flood-opacity="0" result="BackgroundImageFix"/>
<feBlend mode="normal" in="SourceGraphic" in2="BackgroundImageFix" result="shape"/>
<feGaussianBlur stdDeviation="0.290691" result="effect1_foregroundBlur_64_16462"/>
</filter>
<filter id="filter10_f_64_16462" x="19.7669" y="40.7923" width="19.4763" height="16.5697" filterUnits="userSpaceOnUse" color-interpolation-filters="sRGB">
<feFlood flood-opacity="0" result="BackgroundImageFix"/>
<feBlend mode="normal" in="SourceGraphic" in2="BackgroundImageFix" result="shape"/>
<feGaussianBlur stdDeviation="0.581381" result="effect1_foregroundBlur_64_16462"/>
</filter>
<filter id="filter11_f_64_16462" x="20.639" y="41.6644" width="17.7321" height="14.8255" filterUnits="userSpaceOnUse" color-interpolation-filters="sRGB">
<feFlood flood-opacity="0" result="BackgroundImageFix"/>
<feBlend mode="normal" in="SourceGraphic" in2="BackgroundImageFix" result="shape"/>
<feGaussianBlur stdDeviation="0.145345" result="effect1_foregroundBlur_64_16462"/>
</filter>
<filter id="filter12_f_64_16462" x="20.3613" y="20.6045" width="3.80567" height="4.31836" filterUnits="userSpaceOnUse" color-interpolation-filters="sRGB">
<feFlood flood-opacity="0" result="BackgroundImageFix"/>
<feBlend mode="normal" in="SourceGraphic" in2="BackgroundImageFix" result="shape"/>
<feGaussianBlur stdDeviation="0.436036" result="effect1_foregroundBlur_64_16462"/>
</filter>
<filter id="filter13_f_64_16462" x="20.1487" y="45.083" width="3.04224" height="3.3086" filterUnits="userSpaceOnUse" color-interpolation-filters="sRGB">
<feFlood flood-opacity="0" result="BackgroundImageFix"/>
<feBlend mode="normal" in="SourceGraphic" in2="BackgroundImageFix" result="shape"/>
<feGaussianBlur stdDeviation="0.436036" result="effect1_foregroundBlur_64_16462"/>
</filter>
<filter id="filter14_f_64_16462" x="35.9857" y="49.9092" width="3.04224" height="3.3086" filterUnits="userSpaceOnUse" color-interpolation-filters="sRGB">
<feFlood flood-opacity="0" result="BackgroundImageFix"/>
<feBlend mode="normal" in="SourceGraphic" in2="BackgroundImageFix" result="shape"/>
<feGaussianBlur stdDeviation="0.436036" result="effect1_foregroundBlur_64_16462"/>
</filter>
<filter id="filter15_f_64_16462" x="20.9146" y="45.887" width="1.50973" height="1.70052" filterUnits="userSpaceOnUse" color-interpolation-filters="sRGB">
<feFlood flood-opacity="0" result="BackgroundImageFix"/>
<feBlend mode="normal" in="SourceGraphic" in2="BackgroundImageFix" result="shape"/>
<feGaussianBlur stdDeviation="0.145345" result="effect1_foregroundBlur_64_16462"/>
</filter>
<filter id="filter16_f_64_16462" x="21.0347" y="44.6365" width="3.18061" height="2.69184" filterUnits="userSpaceOnUse" color-interpolation-filters="sRGB">
<feFlood flood-opacity="0" result="BackgroundImageFix"/>
<feBlend mode="normal" in="SourceGraphic" in2="BackgroundImageFix" result="shape"/>
<feGaussianBlur stdDeviation="0.484484" result="effect1_foregroundBlur_64_16462"/>
</filter>
<filter id="filter17_f_64_16462" x="36.7522" y="50.7152" width="1.50973" height="1.70052" filterUnits="userSpaceOnUse" color-interpolation-filters="sRGB">
<feFlood flood-opacity="0" result="BackgroundImageFix"/>
<feBlend mode="normal" in="SourceGraphic" in2="BackgroundImageFix" result="shape"/>
<feGaussianBlur stdDeviation="0.145345" result="effect1_foregroundBlur_64_16462"/>
</filter>
<filter id="filter18_f_64_16462" x="37.1794" y="49.6449" width="1.15755" height="1.91537" filterUnits="userSpaceOnUse" color-interpolation-filters="sRGB">
<feFlood flood-opacity="0" result="BackgroundImageFix"/>
<feBlend mode="normal" in="SourceGraphic" in2="BackgroundImageFix" result="shape"/>
<feGaussianBlur stdDeviation="0.145345" result="effect1_foregroundBlur_64_16462"/>
</filter>
<filter id="filter19_f_64_16462" x="52.046" y="30.4873" width="3.80567" height="4.31836" filterUnits="userSpaceOnUse" color-interpolation-filters="sRGB">
<feFlood flood-opacity="0" result="BackgroundImageFix"/>
<feBlend mode="normal" in="SourceGraphic" in2="BackgroundImageFix" result="shape"/>
<feGaussianBlur stdDeviation="0.436036" result="effect1_foregroundBlur_64_16462"/>
</filter>
<filter id="filter20_f_64_16462" x="20.999" y="21.2132" width="2.52962" height="3.10287" filterUnits="userSpaceOnUse" color-interpolation-filters="sRGB">
<feFlood flood-opacity="0" result="BackgroundImageFix"/>
<feBlend mode="normal" in="SourceGraphic" in2="BackgroundImageFix" result="shape"/>
<feGaussianBlur stdDeviation="0.145345" result="effect1_foregroundBlur_64_16462"/>
</filter>
<filter id="filter21_f_64_16462" x="20.9598" y="21.4066" width="2.32052" height="3.23958" filterUnits="userSpaceOnUse" color-interpolation-filters="sRGB">
<feFlood flood-opacity="0" result="BackgroundImageFix"/>
<feBlend mode="normal" in="SourceGraphic" in2="BackgroundImageFix" result="shape"/>
<feGaussianBlur stdDeviation="0.145345" result="effect1_foregroundBlur_64_16462"/>
</filter>
<filter id="filter22_f_64_16462" x="21.5107" y="20.6468" width="2.96395" height="2.68294" filterUnits="userSpaceOnUse" color-interpolation-filters="sRGB">
<feFlood flood-opacity="0" result="BackgroundImageFix"/>
<feBlend mode="normal" in="SourceGraphic" in2="BackgroundImageFix" result="shape"/>
<feGaussianBlur stdDeviation="0.145345" result="effect1_foregroundBlur_64_16462"/>
</filter>
<filter id="filter23_f_64_16462" x="52.7664" y="31.0999" width="2.30562" height="3.18294" filterUnits="userSpaceOnUse" color-interpolation-filters="sRGB">
<feFlood flood-opacity="0" result="BackgroundImageFix"/>
<feBlend mode="normal" in="SourceGraphic" in2="BackgroundImageFix" result="shape"/>
<feGaussianBlur stdDeviation="0.145345" result="effect1_foregroundBlur_64_16462"/>
</filter>
<linearGradient id="paint0_linear_64_16462" x1="36.9177" y1="5.81479" x2="36.9177" y2="52.0346" gradientUnits="userSpaceOnUse">
<stop stop-color="#FF842F"/>
<stop offset="1" stop-color="#FF842F" stop-opacity="0"/>
</linearGradient>
<radialGradient id="paint1_radial_64_16462" cx="0" cy="0" r="1" gradientTransform="matrix(-91.1799 89.7265 -116.237 -107.022 80.9089 -7.84688)" gradientUnits="userSpaceOnUse">
<stop offset="0.466346" stop-color="#FFF8EF"/>
<stop offset="1" stop-color="#FF710F"/>
</radialGradient>
<linearGradient id="paint2_linear_64_16462" x1="36.627" y1="39.2447" x2="50.4348" y2="35.4657" gradientUnits="userSpaceOnUse">
<stop stop-color="#FF7A1D"/>
<stop offset="1" stop-color="#FF7A1D" stop-opacity="0"/>
</linearGradient>
<linearGradient id="paint3_linear_64_16462" x1="20.9297" y1="20.7873" x2="56.1033" y2="36.4846" gradientUnits="userSpaceOnUse">
<stop stop-color="white"/>
<stop offset="0.2" stop-color="white" stop-opacity="0"/>
<stop offset="0.8" stop-color="white" stop-opacity="0"/>
<stop offset="1" stop-color="white"/>
</linearGradient>
<linearGradient id="paint4_linear_64_16462" x1="20.9297" y1="20.7873" x2="56.1033" y2="36.4846" gradientUnits="userSpaceOnUse">
<stop stop-color="white"/>
<stop offset="0.24" stop-color="white" stop-opacity="0"/>
<stop offset="0.75" stop-color="white" stop-opacity="0"/>
<stop offset="1" stop-color="white"/>
</linearGradient>
<linearGradient id="paint5_linear_64_16462" x1="20.9297" y1="20.7873" x2="53.6324" y2="33.8684" gradientUnits="userSpaceOnUse">
<stop stop-color="white"/>
<stop offset="0.159502" stop-color="white" stop-opacity="0"/>
<stop offset="0.871063" stop-color="white" stop-opacity="0"/>
<stop offset="1" stop-color="white"/>
</linearGradient>
<linearGradient id="paint6_linear_64_16462" x1="20.9297" y1="20.7873" x2="56.1033" y2="36.4846" gradientUnits="userSpaceOnUse">
<stop stop-color="white"/>
<stop offset="0.120913" stop-color="white" stop-opacity="0"/>
<stop offset="0.871063" stop-color="white" stop-opacity="0"/>
<stop offset="1" stop-color="white"/>
</linearGradient>
<radialGradient id="paint7_radial_64_16462" cx="0" cy="0" r="1" gradientUnits="userSpaceOnUse" gradientTransform="translate(53.1963 25.1946) rotate(135.642) scale(61.1205 61.6034)">
<stop offset="0.379808" stop-color="#FFF8EF"/>
<stop offset="1" stop-color="#FF710F"/>
</radialGradient>
<linearGradient id="paint8_linear_64_16462" x1="28.97" y1="55.4845" x2="34.4863" y2="52.3003" gradientUnits="userSpaceOnUse">
<stop stop-color="#FF7A1D" stop-opacity="0"/>
<stop offset="1" stop-color="#FF7A1D"/>
</linearGradient>
<linearGradient id="paint9_linear_64_16462" x1="23.2805" y1="56.0308" x2="21.8238" y2="57.1962" gradientUnits="userSpaceOnUse">
<stop stop-color="#E12B01" stop-opacity="0"/>
<stop offset="1" stop-color="#E12B01"/>
</linearGradient>
<linearGradient id="paint10_linear_64_16462" x1="20.893" y1="44.9347" x2="38.5797" y2="52.8953" gradientUnits="userSpaceOnUse">
<stop stop-color="white"/>
<stop offset="0.2" stop-color="white" stop-opacity="0"/>
<stop offset="0.8" stop-color="white" stop-opacity="0"/>
<stop offset="1" stop-color="white"/>
</linearGradient>
<linearGradient id="paint11_linear_64_16462" x1="20.893" y1="44.9347" x2="38.5797" y2="52.8953" gradientUnits="userSpaceOnUse">
<stop stop-color="white"/>
<stop offset="0.24" stop-color="white" stop-opacity="0"/>
<stop offset="0.75" stop-color="white" stop-opacity="0"/>
<stop offset="1" stop-color="white"/>
</linearGradient>
<linearGradient id="paint12_linear_64_16462" x1="20.893" y1="44.9347" x2="38.5797" y2="52.8953" gradientUnits="userSpaceOnUse">
<stop stop-color="white"/>
<stop offset="0.24" stop-color="white" stop-opacity="0"/>
<stop offset="0.75" stop-color="white" stop-opacity="0"/>
<stop offset="1" stop-color="white"/>
</linearGradient>
<linearGradient id="paint13_linear_64_16462" x1="20.893" y1="44.9347" x2="38.5797" y2="52.8953" gradientUnits="userSpaceOnUse">
<stop stop-color="white"/>
<stop offset="0.24" stop-color="white" stop-opacity="0"/>
<stop offset="0.75" stop-color="white" stop-opacity="0"/>
<stop offset="1" stop-color="white"/>
</linearGradient>
<clipPath id="clip0_64_16462">
<rect x="1.16272" y="0.873047" width="71.5099" height="71.5099" rx="13.9531" fill="white"/>
</clipPath>
</defs>
</svg>
